# xmcd
#
# Track frame offsets: 
#        150
#        17983
#        35002
#        51351
#        70323
#        86331
#        106737
#        120876
#        141849
#        159291
#        177129
#
# Disc length: 2642 seconds
#
# Revision: 0
# Processed by: cddbd v1.5.2PL0 Copyright (c) Steve Scherf et al.
# Submitted via: ExactAudioCopy v1.0b4
#
DISCID=870a500b
DTITLE=Jill Johnson and Doug Seegers - In tandem
DYEAR=2015
DGENRE=Country
TTITLE0=We'll sweep out the ashes in the morning
TTITLE1=Dancin'
TTITLE2=Boulder to Birmingham
TTITLE3=Do right woman
TTITLE4=Precious wedding vow
TTITLE5=Lord I'm trying
TTITLE6=So sad to watch good love go bad
TTITLE7=Do I ever cross your mind
TTITLE8=True love never dies
TTITLE9=Here we go again
TTITLE10=Noise without a sound
EXTD=
EXTT0=
EXTT1=
EXTT2=
EXTT3=
EXTT4=
EXTT5=
EXTT6=
EXTT7=
EXTT8=
EXTT9=
EXTT10=
PLAYORDER=
